<svg xmlns="http://www.w3.org/2000/svg" xmlns:xlink="http://www.w3.org/1999/xlink" width="419" zoomAndPan="magnify" viewBox="0 0 314.25 376.499997" height="502" preserveAspectRatio="xMidYMid meet" version="1.2"><defs><clipPath id="0b82ccefdb"><path d="M 188 0.199219 L 223 0.199219 L 223 46 L 188 46 Z M 188 0.199219 "/></clipPath><clipPath id="1b129e8f33"><path d="M 92.570312 2.667969 L 170.527344 2.667969 L 170.527344 80.625 L 92.570312 80.625 Z M 92.570312 2.667969 "/></clipPath><clipPath id="8bd660fbfe"><path d="M 131.550781 2.667969 C 110.023438 2.667969 92.570312 20.117188 92.570312 41.644531 C 92.570312 63.171875 110.023438 80.625 131.550781 80.625 C 153.078125 80.625 170.527344 63.171875 170.527344 41.644531 C 170.527344 20.117188 153.078125 2.667969 131.550781 2.667969 Z M 131.550781 2.667969 "/></clipPath><clipPath id="c3ee373890"><path d="M 91.207031 6.445312 L 162.746094 6.445312 L 162.746094 77.980469 L 91.207031 77.980469 Z M 91.207031 6.445312 "/></clipPath><clipPath id="4b7cc385b5"><path d="M 126.976562 6.445312 C 107.222656 6.445312 91.207031 22.460938 91.207031 42.214844 C 91.207031 61.96875 107.222656 77.980469 126.976562 77.980469 C 146.730469 77.980469 162.746094 61.96875 162.746094 42.214844 C 162.746094 22.460938 146.730469 6.445312 126.976562 6.445312 Z M 126.976562 6.445312 "/></clipPath><clipPath id="43d77a88a8"><path d="M 116.640625 23.632812 L 137.589844 23.632812 L 137.589844 61 L 116.640625 61 Z M 116.640625 23.632812 "/></clipPath><clipPath id="7d95d6e6b4"><path d="M 53.816406 38.347656 L 125.355469 38.347656 L 125.355469 109.886719 L 53.816406 109.886719 Z M 53.816406 38.347656 "/></clipPath><clipPath id="de48a3e0cb"><path d="M 89.585938 38.347656 C 69.832031 38.347656 53.816406 54.363281 53.816406 74.117188 C 53.816406 93.871094 69.832031 109.886719 89.585938 109.886719 C 109.339844 109.886719 125.355469 93.871094 125.355469 74.117188 C 125.355469 54.363281 109.339844 38.347656 89.585938 38.347656 Z M 89.585938 38.347656 "/></clipPath><clipPath id="eee99c9fde"><path d="M 48.75 43.234375 L 120.289062 43.234375 L 120.289062 114.773438 L 48.75 114.773438 Z M 48.75 43.234375 "/></clipPath><clipPath id="dc5d9bffd0"><path d="M 84.519531 43.234375 C 64.765625 43.234375 48.75 59.25 48.75 79.003906 C 48.75 98.757812 64.765625 114.773438 84.519531 114.773438 C 104.273438 114.773438 120.289062 98.757812 120.289062 79.003906 C 120.289062 59.25 104.273438 43.234375 84.519531 43.234375 Z M 84.519531 43.234375 "/></clipPath><clipPath id="4e8190f496"><path d="M 48.75 43.234375 L 120.289062 43.234375 L 120.289062 114.769531 L 48.75 114.769531 Z M 48.75 43.234375 "/></clipPath><clipPath id="41bff84a92"><path d="M 84.519531 43.234375 C 64.765625 43.234375 48.75 59.25 48.75 79.003906 C 48.75 98.757812 64.765625 114.769531 84.519531 114.769531 C 104.273438 114.769531 120.289062 98.757812 120.289062 79.003906 C 120.289062 59.25 104.273438 43.234375 84.519531 43.234375 Z M 84.519531 43.234375 "/></clipPath><clipPath id="019f8540e5"><path d="M 74.183594 60.421875 L 95 60.421875 L 95 97.832031 L 74.183594 97.832031 Z M 74.183594 60.421875 "/></clipPath><clipPath id="6fdc0b7ce0"><path d="M 42.539062 79.683594 L 132.414062 79.683594 L 132.414062 88.5 L 42.539062 88.5 Z M 42.539062 79.683594 "/></clipPath><clipPath id="4f3e7fcf26"><path d="M 146 36 L 313.5 36 L 313.5 196 L 146 196 Z M 146 36 "/></clipPath></defs><g id="8ee6daedf6"><path style="fill:none;stroke-width:15;stroke-linecap:butt;stroke-linejoin:miter;stroke:#ffb102;stroke-opacity:1;stroke-miterlimit:4;" d="M -0.000435248 7.499045 L 119.205268 7.499045 " transform="matrix(0.748214,-0.000000000000000371,0.000000000000000371,0.748214,127.746419,17.033639)"/><g clip-rule="nonzero" clip-path="url(#0b82ccefdb)"><path style="fill:none;stroke-width:15;stroke-linecap:round;stroke-linejoin:round;stroke:#ffb102;stroke-opacity:1;stroke-miterlimit:4;" d="M 89.206758 -15.002447 L 119.205268 7.499045 L 89.206758 30.000538 " transform="matrix(0.748214,-0.000000000000000371,0.000000000000000371,0.748214,127.746419,17.033639)"/></g><g clip-rule="nonzero" clip-path="url(#1b129e8f33)"><g clip-rule="nonzero" clip-path="url(#8bd660fbfe)"><path style=" stroke:none;fill-rule:nonzero;fill:#ffffff;fill-opacity:1;" d="M 92.570312 2.667969 L 170.527344 2.667969 L 170.527344 80.625 L 92.570312 80.625 Z M 92.570312 2.667969 "/></g></g><g clip-rule="nonzero" clip-path="url(#c3ee373890)"><g clip-rule="nonzero" clip-path="url(#4b7cc385b5)"><path style=" stroke:none;fill-rule:nonzero;fill:#ffd524;fill-opacity:1;" d="M 91.207031 6.445312 L 162.746094 6.445312 L 162.746094 77.980469 L 91.207031 77.980469 Z M 91.207031 6.445312 "/><path style="fill:none;stroke-width:10;stroke-linecap:butt;stroke-linejoin:miter;stroke:#ffb102;stroke-opacity:1;stroke-miterlimit:4;" d="M 47.805049 0.0000817898 C 21.403645 0.0000817898 -0.00148675 21.405214 -0.00148675 47.806617 C -0.00148675 74.20802 21.403645 95.607932 47.805049 95.607932 C 74.206452 95.607932 95.611584 74.20802 95.611584 47.806617 C 95.611584 21.405214 74.206452 0.0000817898 47.805049 0.0000817898 Z M 47.805049 0.0000817898 " transform="matrix(0.748214,0,0,0.748214,91.208144,6.445251)"/></g></g><g clip-rule="nonzero" clip-path="url(#43d77a88a8)"><path style=" stroke:none;fill-rule:nonzero;fill:#faa92d;fill-opacity:1;" d="M 137.097656 47.585938 C 137.097656 39.667969 122.5 40.183594 122.5 35.402344 C 122.5 33.089844 124.714844 31.960938 127.28125 31.960938 C 131.601562 31.960938 132.367188 34.734375 134.324219 34.734375 C 135.710938 34.734375 136.375 33.863281 136.375 32.886719 C 136.375 30.613281 132.933594 28.894531 129.628906 28.296875 L 129.628906 26.105469 C 129.628906 24.738281 128.523438 23.628906 127.15625 23.628906 C 125.785156 23.628906 124.679688 24.738281 124.679688 26.105469 L 124.679688 28.375 C 121.078125 29.195312 117.980469 31.691406 117.980469 35.765625 C 117.980469 43.371094 132.574219 43.0625 132.574219 48.402344 C 132.574219 50.253906 130.574219 52.105469 127.28125 52.105469 C 122.347656 52.105469 120.703125 48.765625 118.699219 48.765625 C 117.722656 48.765625 116.851562 49.585938 116.851562 50.824219 C 116.851562 52.792969 120.148438 55.160156 124.679688 55.820312 L 124.679688 58.308594 C 124.679688 59.679688 125.789062 60.789062 127.15625 60.789062 C 128.523438 60.789062 129.632812 59.679688 129.632812 58.308594 L 129.632812 55.835938 C 129.632812 55.808594 129.617188 55.785156 129.617188 55.757812 C 133.695312 54.996094 137.097656 52.339844 137.097656 47.585938 Z M 137.097656 47.585938 "/></g><g clip-rule="nonzero" clip-path="url(#7d95d6e6b4)"><g clip-rule="nonzero" clip-path="url(#de48a3e0cb)"><path style=" stroke:none;fill-rule:nonzero;fill:#ffffff;fill-opacity:1;" d="M 53.816406 38.347656 L 125.355469 38.347656 L 125.355469 109.886719 L 53.816406 109.886719 Z M 53.816406 38.347656 "/></g></g><g clip-rule="nonzero" clip-path="url(#eee99c9fde)"><g clip-rule="nonzero" clip-path="url(#dc5d9bffd0)"><path style=" stroke:none;fill-rule:nonzero;fill:#ffd524;fill-opacity:1;" d="M 48.75 43.234375 L 120.289062 43.234375 L 120.289062 114.773438 L 48.75 114.773438 Z M 48.75 43.234375 "/></g></g><g clip-rule="nonzero" clip-path="url(#4e8190f496)"><g clip-rule="nonzero" clip-path="url(#41bff84a92)"><path style="fill:none;stroke-width:10;stroke-linecap:butt;stroke-linejoin:miter;stroke:#ffb102;stroke-opacity:1;stroke-miterlimit:4;" d="M 47.805215 -0.000877657 C 21.403812 -0.000877657 -0.00132042 21.404254 -0.00132042 47.805658 C -0.00132042 74.207061 21.403812 95.606972 47.805215 95.606972 C 74.206618 95.606972 95.61175 74.207061 95.61175 47.805658 C 95.61175 21.404254 74.206618 -0.000877657 47.805215 -0.000877657 Z M 47.805215 -0.000877657 " transform="matrix(0.748214,0,0,0.748214,48.750988,43.235032)"/></g></g><g clip-rule="nonzero" clip-path="url(#019f8540e5)"><path style=" stroke:none;fill-rule:nonzero;fill:#faa92d;fill-opacity:1;" d="M 94.640625 84.375 C 94.640625 76.457031 80.042969 76.972656 80.042969 72.195312 C 80.042969 69.878906 82.257812 68.75 84.824219 68.75 C 89.144531 68.75 89.910156 71.523438 91.867188 71.523438 C 93.253906 71.523438 93.917969 70.652344 93.917969 69.675781 C 93.917969 67.402344 90.476562 65.683594 87.171875 65.089844 L 87.171875 62.894531 C 87.171875 61.527344 86.066406 60.417969 84.699219 60.417969 C 83.328125 60.417969 82.222656 61.527344 82.222656 62.894531 L 82.222656 65.164062 C 78.621094 65.984375 75.523438 68.484375 75.523438 72.554688 C 75.523438 80.160156 90.117188 79.851562 90.117188 85.195312 C 90.117188 87.042969 88.113281 88.894531 84.824219 88.894531 C 79.890625 88.894531 78.246094 85.554688 76.242188 85.554688 C 75.265625 85.554688 74.394531 86.375 74.394531 87.613281 C 74.394531 89.582031 77.691406 91.949219 82.222656 92.609375 L 82.222656 95.101562 C 82.222656 96.46875 83.332031 97.578125 84.699219 97.578125 C 86.066406 97.578125 87.175781 96.46875 87.175781 95.101562 L 87.175781 92.625 C 87.175781 92.597656 87.160156 92.574219 87.160156 92.550781 C 91.238281 91.789062 94.640625 89.128906 94.640625 84.375 Z M 94.640625 84.375 "/></g><g clip-rule="nonzero" clip-path="url(#6fdc0b7ce0)"><path style=" stroke:none;fill-rule:nonzero;fill:#ffffff;fill-opacity:1;" d="M 42.539062 79.683594 L 132.402344 79.683594 L 132.402344 88.5 L 42.539062 88.5 Z M 42.539062 79.683594 "/></g><path style=" stroke:none;fill-rule:nonzero;fill:#8c52ff;fill-opacity:1;" d="M 21.253906 87.585938 C 15.585938 88.765625 12.753906 90.417969 8.503906 95.257812 C 6.261719 97.851562 4.605469 101.277344 4.136719 104.460938 C 3.78125 107.292969 3.546875 132.195312 3.78125 159.808594 L 4.136719 210.082031 L 7.324219 214.210938 C 13.816406 222.707031 8.976562 222.355469 104.359375 222 C 188.644531 221.648438 189.941406 221.648438 193.128906 219.167969 C 200.210938 213.859375 201.273438 211.378906 201.628906 197.101562 L 202.101562 183.882812 L 175.1875 184.238281 C 159.132812 184.472656 145.910156 184 142.367188 183.292969 C 130.800781 180.816406 123.246094 171.609375 121.945312 158.273438 C 120.882812 146.472656 123.128906 139.15625 129.738281 132.546875 C 137.527344 124.757812 140.246094 124.289062 174.003906 124.289062 L 203.046875 124.289062 L 203.046875 110.125 C 203.046875 96.320312 202.925781 95.964844 199.738281 92.304688 C 196.671875 88.882812 195.609375 88.53125 186.402344 87.585938 C 174.359375 86.40625 27.035156 86.40625 21.253906 87.585938 Z M 21.253906 87.585938 "/><path style=" stroke:none;fill-rule:nonzero;fill:#8c52ff;fill-opacity:1;" d="M 142.839844 136.324219 C 135.757812 139.984375 132.808594 145.292969 132.808594 154.378906 C 132.808594 159.691406 133.515625 162.523438 135.640625 165.945312 C 140.480469 173.734375 141.304688 173.96875 177.3125 173.617188 L 209.539062 173.261719 L 209.890625 154.261719 L 210.128906 135.261719 L 205.761719 134.4375 C 203.28125 134.082031 189.351562 133.726562 174.714844 133.726562 C 149.453125 133.726562 147.800781 133.847656 142.839844 136.324219 Z M 157.714844 148.242188 C 160.429688 150.605469 160.785156 151.546875 160.074219 155.324219 C 159.132812 160.398438 156.296875 162.289062 150.277344 161.816406 C 141.542969 161.105469 138.945312 150.839844 146.382812 147.0625 C 150.75 144.820312 154.171875 145.175781 157.714844 148.242188 Z M 157.714844 148.242188 "/><path style="fill:none;stroke-width:15;stroke-linecap:round;stroke-linejoin:miter;stroke:#ffb102;stroke-opacity:1;stroke-miterlimit:4;" d="M 7.498472 7.497598 L 77.889561 7.497598 " transform="matrix(0.747165,-0.000000000000000278,0.000000000000000278,0.747165,212.604436,180.753527)"/><path style="fill:none;stroke-width:15;stroke-linecap:round;stroke-linejoin:round;stroke:#ffb102;stroke-opacity:1;stroke-miterlimit:4;" d="M 51.639289 -14.9989 L 81.638106 7.497598 L 51.639289 29.999325 " transform="matrix(0.747165,-0.000000000000000278,0.000000000000000278,0.747165,212.604436,180.753527)"/><g clip-rule="nonzero" clip-path="url(#4f3e7fcf26)"><path style="fill:none;stroke-width:17;stroke-linecap:round;stroke-linejoin:miter;stroke:#8c52ff;stroke-opacity:1;stroke-miterlimit:4;" d="M 8.502529 29.572539 L 8.502529 19.035397 C 8.502529 13.215129 13.219403 8.498254 19.034442 8.498254 L 88.773066 8.498254 " transform="matrix(0.746986,0,0,0.746986,211.640921,101.569895)"/></g><path style="fill:none;stroke-width:17;stroke-linecap:round;stroke-linejoin:round;stroke:#8c52ff;stroke-opacity:1;stroke-miterlimit:4;" d="M 59.023288 -17.000061 L 93.024528 8.498254 L 59.023288 34.001799 " transform="matrix(0.746986,0,0,0.746986,211.640921,101.569895)"/><g style="fill:#ffed00;fill-opacity:0.4;"><g transform="translate(54.365809, 336.535352)"><path style="stroke:none" d="M 21.984375 1.328125 C 17.828125 1.328125 14.222656 0.507812 11.171875 -1.125 C 8.128906 -2.769531 5.769531 -5.097656 4.09375 -8.109375 C 2.414062 -11.117188 1.578125 -14.6875 1.578125 -18.8125 C 1.578125 -22.9375 2.367188 -26.503906 3.953125 -29.515625 C 5.546875 -32.523438 7.796875 -34.847656 10.703125 -36.484375 C 13.609375 -38.128906 17.035156 -38.953125 20.984375 -38.953125 C 24.078125 -38.953125 26.847656 -38.382812 29.296875 -37.25 C 31.742188 -36.125 33.757812 -34.519531 35.34375 -32.4375 C 36.9375 -30.363281 37.941406 -27.898438 38.359375 -25.046875 L 30.125 -22.984375 C 29.664062 -25.523438 28.640625 -27.535156 27.046875 -29.015625 C 25.460938 -30.492188 23.441406 -31.234375 20.984375 -31.234375 C 17.804688 -31.234375 15.285156 -30.113281 13.421875 -27.875 C 11.554688 -25.632812 10.625 -22.613281 10.625 -18.8125 C 10.65625 -15.039062 11.703125 -12.035156 13.765625 -9.796875 C 15.828125 -7.566406 18.601562 -6.453125 22.09375 -6.453125 C 24.976562 -6.453125 27.40625 -7.332031 29.375 -9.09375 C 31.351562 -10.851562 32.570312 -13.210938 33.03125 -16.171875 L 41.484375 -15 C 41.097656 -11.695312 40.039062 -8.816406 38.3125 -6.359375 C 36.582031 -3.910156 34.328125 -2.015625 31.546875 -0.671875 C 28.765625 0.660156 25.578125 1.328125 21.984375 1.328125 Z M 21.984375 1.328125 "/></g></g><g style="fill:#ffed00;fill-opacity:0.4;"><g transform="translate(96.736028, 336.535352)"><path style="stroke:none" d="M 2.109375 0 L 2.109375 -39.203125 L 10.203125 -39.203125 L 10.203125 0 Z M 2.109375 0 "/></g></g><g style="fill:#ffed00;fill-opacity:0.4;"><g transform="translate(109.045584, 336.535352)"><path style="stroke:none" d="M 10.46875 0.796875 C 7.644531 0.796875 5.328125 0.09375 3.515625 -1.3125 C 1.703125 -2.726562 0.796875 -4.597656 0.796875 -6.921875 C 0.796875 -9.242188 1.796875 -11.195312 3.796875 -12.78125 C 5.804688 -14.375 8.835938 -15.378906 12.890625 -15.796875 L 18.125 -16.4375 C 18.757812 -16.507812 19.269531 -16.710938 19.65625 -17.046875 C 20.039062 -17.378906 20.234375 -17.828125 20.234375 -18.390625 C 20.234375 -19.554688 19.773438 -20.488281 18.859375 -21.1875 C 17.941406 -21.894531 16.765625 -22.25 15.328125 -22.25 C 13.703125 -22.25 12.359375 -21.742188 11.296875 -20.734375 C 10.242188 -19.734375 9.648438 -18.566406 9.515625 -17.234375 L 1.640625 -18.4375 C 1.816406 -20.3125 2.476562 -21.976562 3.625 -23.4375 C 4.769531 -24.894531 6.328125 -26.035156 8.296875 -26.859375 C 10.265625 -27.691406 12.535156 -28.109375 15.109375 -28.109375 C 19.085938 -28.109375 22.257812 -27.128906 24.625 -25.171875 C 26.988281 -23.222656 28.171875 -20.554688 28.171875 -17.171875 L 28.171875 -6.71875 C 28.171875 -5.40625 28.628906 -4.75 29.546875 -4.75 C 30.316406 -4.75 31.019531 -5.15625 31.65625 -5.96875 L 33.5625 -1.6875 C 32.75 -0.875 31.695312 -0.257812 30.40625 0.15625 C 29.125 0.582031 27.867188 0.796875 26.640625 0.796875 C 25.015625 0.796875 23.617188 0.359375 22.453125 -0.515625 C 21.296875 -1.398438 20.628906 -2.460938 20.453125 -3.703125 L 20.34375 -4.65625 L 20.296875 -4.65625 C 19.410156 -3.03125 18.117188 -1.710938 16.421875 -0.703125 C 14.734375 0.296875 12.75 0.796875 10.46875 0.796875 Z M 13.53125 -4.75 C 15.425781 -4.75 16.988281 -5.335938 18.21875 -6.515625 C 19.457031 -7.703125 20.078125 -9.210938 20.078125 -11.046875 L 20.078125 -12.15625 L 14.90625 -11.578125 C 12.644531 -11.328125 11.070312 -10.863281 10.1875 -10.1875 C 9.3125 -9.519531 8.875 -8.75 8.875 -7.875 C 8.875 -6.957031 9.3125 -6.207031 10.1875 -5.625 C 11.070312 -5.039062 12.1875 -4.75 13.53125 -4.75 Z M 13.53125 -4.75 "/></g></g><g style="fill:#ffed00;fill-opacity:0.4;"><g transform="translate(142.593086, 336.535352)"><path style="stroke:none" d="M 17.4375 -27.90625 C 19.800781 -27.90625 21.738281 -27.082031 23.25 -25.4375 C 24.769531 -23.800781 25.6875 -21.46875 26 -18.4375 L 19.1875 -16.59375 C 19.039062 -18.25 18.601562 -19.535156 17.875 -20.453125 C 17.15625 -21.367188 16.21875 -21.828125 15.0625 -21.828125 C 13.539062 -21.828125 12.347656 -21.203125 11.484375 -19.953125 C 10.628906 -18.703125 10.203125 -16.96875 10.203125 -14.75 L 10.203125 0 L 2.109375 0 L 2.109375 -27.0625 L 8.5625 -27.0625 L 9.78125 -22.671875 L 9.828125 -22.671875 C 10.566406 -24.328125 11.601562 -25.613281 12.9375 -26.53125 C 14.28125 -27.445312 15.78125 -27.90625 17.4375 -27.90625 Z M 17.4375 -27.90625 "/></g></g><g style="fill:#ffed00;fill-opacity:0.4;"><g transform="translate(169.378263, 336.535352)"><path style="stroke:none" d="M 10.46875 0.796875 C 7.644531 0.796875 5.328125 0.09375 3.515625 -1.3125 C 1.703125 -2.726562 0.796875 -4.597656 0.796875 -6.921875 C 0.796875 -9.242188 1.796875 -11.195312 3.796875 -12.78125 C 5.804688 -14.375 8.835938 -15.378906 12.890625 -15.796875 L 18.125 -16.4375 C 18.757812 -16.507812 19.269531 -16.710938 19.65625 -17.046875 C 20.039062 -17.378906 20.234375 -17.828125 20.234375 -18.390625 C 20.234375 -19.554688 19.773438 -20.488281 18.859375 -21.1875 C 17.941406 -21.894531 16.765625 -22.25 15.328125 -22.25 C 13.703125 -22.25 12.359375 -21.742188 11.296875 -20.734375 C 10.242188 -19.734375 9.648438 -18.566406 9.515625 -17.234375 L 1.640625 -18.4375 C 1.816406 -20.3125 2.476562 -21.976562 3.625 -23.4375 C 4.769531 -24.894531 6.328125 -26.035156 8.296875 -26.859375 C 10.265625 -27.691406 12.535156 -28.109375 15.109375 -28.109375 C 19.085938 -28.109375 22.257812 -27.128906 24.625 -25.171875 C 26.988281 -23.222656 28.171875 -20.554688 28.171875 -17.171875 L 28.171875 -6.71875 C 28.171875 -5.40625 28.628906 -4.75 29.546875 -4.75 C 30.316406 -4.75 31.019531 -5.15625 31.65625 -5.96875 L 33.5625 -1.6875 C 32.75 -0.875 31.695312 -0.257812 30.40625 0.15625 C 29.125 0.582031 27.867188 0.796875 26.640625 0.796875 C 25.015625 0.796875 23.617188 0.359375 22.453125 -0.515625 C 21.296875 -1.398438 20.628906 -2.460938 20.453125 -3.703125 L 20.34375 -4.65625 L 20.296875 -4.65625 C 19.410156 -3.03125 18.117188 -1.710938 16.421875 -0.703125 C 14.734375 0.296875 12.75 0.796875 10.46875 0.796875 Z M 13.53125 -4.75 C 15.425781 -4.75 16.988281 -5.335938 18.21875 -6.515625 C 19.457031 -7.703125 20.078125 -9.210938 20.078125 -11.046875 L 20.078125 -12.15625 L 14.90625 -11.578125 C 12.644531 -11.328125 11.070312 -10.863281 10.1875 -10.1875 C 9.3125 -9.519531 8.875 -8.75 8.875 -7.875 C 8.875 -6.957031 9.3125 -6.207031 10.1875 -5.625 C 11.070312 -5.039062 12.1875 -4.75 13.53125 -4.75 Z M 13.53125 -4.75 "/></g></g><g style="fill:#ffed00;fill-opacity:0.4;"><g transform="translate(202.925765, 336.535352)"><path style="stroke:none" d="M 14.21875 0.953125 C 11.78125 0.953125 9.582031 0.59375 7.625 -0.125 C 5.675781 -0.851562 4.109375 -1.910156 2.921875 -3.296875 C 1.742188 -4.691406 1.085938 -6.394531 0.953125 -8.40625 L 7.984375 -9.1875 C 8.117188 -7.75 8.8125 -6.597656 10.0625 -5.734375 C 11.3125 -4.867188 12.851562 -4.4375 14.6875 -4.4375 C 16.207031 -4.4375 17.492188 -4.734375 18.546875 -5.328125 C 19.609375 -5.929688 20.140625 -6.691406 20.140625 -7.609375 C 20.140625 -8.421875 19.707031 -9.082031 18.84375 -9.59375 C 17.976562 -10.101562 16.59375 -10.515625 14.6875 -10.828125 L 10.671875 -11.46875 C 7.679688 -11.957031 5.515625 -12.800781 4.171875 -14 C 2.835938 -15.195312 2.171875 -16.90625 2.171875 -19.125 C 2.171875 -21.875 3.242188 -24.039062 5.390625 -25.625 C 7.535156 -27.207031 10.335938 -28 13.796875 -28 C 15.941406 -28 17.867188 -27.664062 19.578125 -27 C 21.285156 -26.332031 22.675781 -25.398438 23.75 -24.203125 C 24.820312 -23.003906 25.46875 -21.613281 25.6875 -20.03125 L 18.8125 -19.03125 C 18.707031 -20.1875 18.160156 -21.109375 17.171875 -21.796875 C 16.179688 -22.484375 14.96875 -22.828125 13.53125 -22.828125 C 12.257812 -22.828125 11.203125 -22.535156 10.359375 -21.953125 C 9.515625 -21.367188 9.070312 -20.675781 9.03125 -19.875 C 9.03125 -19.195312 9.390625 -18.628906 10.109375 -18.171875 C 10.835938 -17.710938 12.015625 -17.34375 13.640625 -17.0625 L 17.65625 -16.375 C 21.070312 -15.78125 23.546875 -14.835938 25.078125 -13.546875 C 26.609375 -12.265625 27.375 -10.5 27.375 -8.25 C 27.375 -6.375 26.816406 -4.75 25.703125 -3.375 C 24.597656 -2.007812 23.054688 -0.945312 21.078125 -0.1875 C 19.109375 0.570312 16.820312 0.953125 14.21875 0.953125 Z M 14.21875 0.953125 "/></g></g><g style="fill:#ffb102;fill-opacity:1;"><g transform="translate(54.365809, 334.950071)"><path style="stroke:none" d="M 21.984375 1.328125 C 17.828125 1.328125 14.222656 0.507812 11.171875 -1.125 C 8.128906 -2.769531 5.769531 -5.097656 4.09375 -8.109375 C 2.414062 -11.117188 1.578125 -14.6875 1.578125 -18.8125 C 1.578125 -22.9375 2.367188 -26.503906 3.953125 -29.515625 C 5.546875 -32.523438 7.796875 -34.847656 10.703125 -36.484375 C 13.609375 -38.128906 17.035156 -38.953125 20.984375 -38.953125 C 24.078125 -38.953125 26.847656 -38.382812 29.296875 -37.25 C 31.742188 -36.125 33.757812 -34.519531 35.34375 -32.4375 C 36.9375 -30.363281 37.941406 -27.898438 38.359375 -25.046875 L 30.125 -22.984375 C 29.664062 -25.523438 28.640625 -27.535156 27.046875 -29.015625 C 25.460938 -30.492188 23.441406 -31.234375 20.984375 -31.234375 C 17.804688 -31.234375 15.285156 -30.113281 13.421875 -27.875 C 11.554688 -25.632812 10.625 -22.613281 10.625 -18.8125 C 10.65625 -15.039062 11.703125 -12.035156 13.765625 -9.796875 C 15.828125 -7.566406 18.601562 -6.453125 22.09375 -6.453125 C 24.976562 -6.453125 27.40625 -7.332031 29.375 -9.09375 C 31.351562 -10.851562 32.570312 -13.210938 33.03125 -16.171875 L 41.484375 -15 C 41.097656 -11.695312 40.039062 -8.816406 38.3125 -6.359375 C 36.582031 -3.910156 34.328125 -2.015625 31.546875 -0.671875 C 28.765625 0.660156 25.578125 1.328125 21.984375 1.328125 Z M 21.984375 1.328125 "/></g></g><g style="fill:#ffb102;fill-opacity:1;"><g transform="translate(96.736028, 334.950071)"><path style="stroke:none" d="M 2.109375 0 L 2.109375 -39.203125 L 10.203125 -39.203125 L 10.203125 0 Z M 2.109375 0 "/></g></g><g style="fill:#ffb102;fill-opacity:1;"><g transform="translate(109.045584, 334.950071)"><path style="stroke:none" d="M 10.46875 0.796875 C 7.644531 0.796875 5.328125 0.09375 3.515625 -1.3125 C 1.703125 -2.726562 0.796875 -4.597656 0.796875 -6.921875 C 0.796875 -9.242188 1.796875 -11.195312 3.796875 -12.78125 C 5.804688 -14.375 8.835938 -15.378906 12.890625 -15.796875 L 18.125 -16.4375 C 18.757812 -16.507812 19.269531 -16.710938 19.65625 -17.046875 C 20.039062 -17.378906 20.234375 -17.828125 20.234375 -18.390625 C 20.234375 -19.554688 19.773438 -20.488281 18.859375 -21.1875 C 17.941406 -21.894531 16.765625 -22.25 15.328125 -22.25 C 13.703125 -22.25 12.359375 -21.742188 11.296875 -20.734375 C 10.242188 -19.734375 9.648438 -18.566406 9.515625 -17.234375 L 1.640625 -18.4375 C 1.816406 -20.3125 2.476562 -21.976562 3.625 -23.4375 C 4.769531 -24.894531 6.328125 -26.035156 8.296875 -26.859375 C 10.265625 -27.691406 12.535156 -28.109375 15.109375 -28.109375 C 19.085938 -28.109375 22.257812 -27.128906 24.625 -25.171875 C 26.988281 -23.222656 28.171875 -20.554688 28.171875 -17.171875 L 28.171875 -6.71875 C 28.171875 -5.40625 28.628906 -4.75 29.546875 -4.75 C 30.316406 -4.75 31.019531 -5.15625 31.65625 -5.96875 L 33.5625 -1.6875 C 32.75 -0.875 31.695312 -0.257812 30.40625 0.15625 C 29.125 0.582031 27.867188 0.796875 26.640625 0.796875 C 25.015625 0.796875 23.617188 0.359375 22.453125 -0.515625 C 21.296875 -1.398438 20.628906 -2.460938 20.453125 -3.703125 L 20.34375 -4.65625 L 20.296875 -4.65625 C 19.410156 -3.03125 18.117188 -1.710938 16.421875 -0.703125 C 14.734375 0.296875 12.75 0.796875 10.46875 0.796875 Z M 13.53125 -4.75 C 15.425781 -4.75 16.988281 -5.335938 18.21875 -6.515625 C 19.457031 -7.703125 20.078125 -9.210938 20.078125 -11.046875 L 20.078125 -12.15625 L 14.90625 -11.578125 C 12.644531 -11.328125 11.070312 -10.863281 10.1875 -10.1875 C 9.3125 -9.519531 8.875 -8.75 8.875 -7.875 C 8.875 -6.957031 9.3125 -6.207031 10.1875 -5.625 C 11.070312 -5.039062 12.1875 -4.75 13.53125 -4.75 Z M 13.53125 -4.75 "/></g></g><g style="fill:#ffb102;fill-opacity:1;"><g transform="translate(142.593086, 334.950071)"><path style="stroke:none" d="M 17.4375 -27.90625 C 19.800781 -27.90625 21.738281 -27.082031 23.25 -25.4375 C 24.769531 -23.800781 25.6875 -21.46875 26 -18.4375 L 19.1875 -16.59375 C 19.039062 -18.25 18.601562 -19.535156 17.875 -20.453125 C 17.15625 -21.367188 16.21875 -21.828125 15.0625 -21.828125 C 13.539062 -21.828125 12.347656 -21.203125 11.484375 -19.953125 C 10.628906 -18.703125 10.203125 -16.96875 10.203125 -14.75 L 10.203125 0 L 2.109375 0 L 2.109375 -27.0625 L 8.5625 -27.0625 L 9.78125 -22.671875 L 9.828125 -22.671875 C 10.566406 -24.328125 11.601562 -25.613281 12.9375 -26.53125 C 14.28125 -27.445312 15.78125 -27.90625 17.4375 -27.90625 Z M 17.4375 -27.90625 "/></g></g><g style="fill:#ffb102;fill-opacity:1;"><g transform="translate(169.378263, 334.950071)"><path style="stroke:none" d="M 10.46875 0.796875 C 7.644531 0.796875 5.328125 0.09375 3.515625 -1.3125 C 1.703125 -2.726562 0.796875 -4.597656 0.796875 -6.921875 C 0.796875 -9.242188 1.796875 -11.195312 3.796875 -12.78125 C 5.804688 -14.375 8.835938 -15.378906 12.890625 -15.796875 L 18.125 -16.4375 C 18.757812 -16.507812 19.269531 -16.710938 19.65625 -17.046875 C 20.039062 -17.378906 20.234375 -17.828125 20.234375 -18.390625 C 20.234375 -19.554688 19.773438 -20.488281 18.859375 -21.1875 C 17.941406 -21.894531 16.765625 -22.25 15.328125 -22.25 C 13.703125 -22.25 12.359375 -21.742188 11.296875 -20.734375 C 10.242188 -19.734375 9.648438 -18.566406 9.515625 -17.234375 L 1.640625 -18.4375 C 1.816406 -20.3125 2.476562 -21.976562 3.625 -23.4375 C 4.769531 -24.894531 6.328125 -26.035156 8.296875 -26.859375 C 10.265625 -27.691406 12.535156 -28.109375 15.109375 -28.109375 C 19.085938 -28.109375 22.257812 -27.128906 24.625 -25.171875 C 26.988281 -23.222656 28.171875 -20.554688 28.171875 -17.171875 L 28.171875 -6.71875 C 28.171875 -5.40625 28.628906 -4.75 29.546875 -4.75 C 30.316406 -4.75 31.019531 -5.15625 31.65625 -5.96875 L 33.5625 -1.6875 C 32.75 -0.875 31.695312 -0.257812 30.40625 0.15625 C 29.125 0.582031 27.867188 0.796875 26.640625 0.796875 C 25.015625 0.796875 23.617188 0.359375 22.453125 -0.515625 C 21.296875 -1.398438 20.628906 -2.460938 20.453125 -3.703125 L 20.34375 -4.65625 L 20.296875 -4.65625 C 19.410156 -3.03125 18.117188 -1.710938 16.421875 -0.703125 C 14.734375 0.296875 12.75 0.796875 10.46875 0.796875 Z M 13.53125 -4.75 C 15.425781 -4.75 16.988281 -5.335938 18.21875 -6.515625 C 19.457031 -7.703125 20.078125 -9.210938 20.078125 -11.046875 L 20.078125 -12.15625 L 14.90625 -11.578125 C 12.644531 -11.328125 11.070312 -10.863281 10.1875 -10.1875 C 9.3125 -9.519531 8.875 -8.75 8.875 -7.875 C 8.875 -6.957031 9.3125 -6.207031 10.1875 -5.625 C 11.070312 -5.039062 12.1875 -4.75 13.53125 -4.75 Z M 13.53125 -4.75 "/></g></g><g style="fill:#ffb102;fill-opacity:1;"><g transform="translate(202.925765, 334.950071)"><path style="stroke:none" d="M 14.21875 0.953125 C 11.78125 0.953125 9.582031 0.59375 7.625 -0.125 C 5.675781 -0.851562 4.109375 -1.910156 2.921875 -3.296875 C 1.742188 -4.691406 1.085938 -6.394531 0.953125 -8.40625 L 7.984375 -9.1875 C 8.117188 -7.75 8.8125 -6.597656 10.0625 -5.734375 C 11.3125 -4.867188 12.851562 -4.4375 14.6875 -4.4375 C 16.207031 -4.4375 17.492188 -4.734375 18.546875 -5.328125 C 19.609375 -5.929688 20.140625 -6.691406 20.140625 -7.609375 C 20.140625 -8.421875 19.707031 -9.082031 18.84375 -9.59375 C 17.976562 -10.101562 16.59375 -10.515625 14.6875 -10.828125 L 10.671875 -11.46875 C 7.679688 -11.957031 5.515625 -12.800781 4.171875 -14 C 2.835938 -15.195312 2.171875 -16.90625 2.171875 -19.125 C 2.171875 -21.875 3.242188 -24.039062 5.390625 -25.625 C 7.535156 -27.207031 10.335938 -28 13.796875 -28 C 15.941406 -28 17.867188 -27.664062 19.578125 -27 C 21.285156 -26.332031 22.675781 -25.398438 23.75 -24.203125 C 24.820312 -23.003906 25.46875 -21.613281 25.6875 -20.03125 L 18.8125 -19.03125 C 18.707031 -20.1875 18.160156 -21.109375 17.171875 -21.796875 C 16.179688 -22.484375 14.96875 -22.828125 13.53125 -22.828125 C 12.257812 -22.828125 11.203125 -22.535156 10.359375 -21.953125 C 9.515625 -21.367188 9.070312 -20.675781 9.03125 -19.875 C 9.03125 -19.195312 9.390625 -18.628906 10.109375 -18.171875 C 10.835938 -17.710938 12.015625 -17.34375 13.640625 -17.0625 L 17.65625 -16.375 C 21.070312 -15.78125 23.546875 -14.835938 25.078125 -13.546875 C 26.609375 -12.265625 27.375 -10.5 27.375 -8.25 C 27.375 -6.375 26.816406 -4.75 25.703125 -3.375 C 24.597656 -2.007812 23.054688 -0.945312 21.078125 -0.1875 C 19.109375 0.570312 16.820312 0.953125 14.21875 0.953125 Z M 14.21875 0.953125 "/></g></g><g style="fill:#ffed00;fill-opacity:0.4;"><g transform="translate(31.148021, 281.927563)"><path style="stroke:none" d="M 21.984375 1.328125 C 17.828125 1.328125 14.222656 0.507812 11.171875 -1.125 C 8.128906 -2.769531 5.769531 -5.097656 4.09375 -8.109375 C 2.414062 -11.117188 1.578125 -14.6875 1.578125 -18.8125 C 1.578125 -22.9375 2.367188 -26.503906 3.953125 -29.515625 C 5.546875 -32.523438 7.796875 -34.847656 10.703125 -36.484375 C 13.609375 -38.128906 17.035156 -38.953125 20.984375 -38.953125 C 24.078125 -38.953125 26.847656 -38.382812 29.296875 -37.25 C 31.742188 -36.125 33.757812 -34.519531 35.34375 -32.4375 C 36.9375 -30.363281 37.941406 -27.898438 38.359375 -25.046875 L 30.125 -22.984375 C 29.664062 -25.523438 28.640625 -27.535156 27.046875 -29.015625 C 25.460938 -30.492188 23.441406 -31.234375 20.984375 -31.234375 C 17.804688 -31.234375 15.285156 -30.113281 13.421875 -27.875 C 11.554688 -25.632812 10.625 -22.613281 10.625 -18.8125 C 10.65625 -15.039062 11.703125 -12.035156 13.765625 -9.796875 C 15.828125 -7.566406 18.601562 -6.453125 22.09375 -6.453125 C 24.976562 -6.453125 27.40625 -7.332031 29.375 -9.09375 C 31.351562 -10.851562 32.570312 -13.210938 33.03125 -16.171875 L 41.484375 -15 C 41.097656 -11.695312 40.039062 -8.816406 38.3125 -6.359375 C 36.582031 -3.910156 34.328125 -2.015625 31.546875 -0.671875 C 28.765625 0.660156 25.578125 1.328125 21.984375 1.328125 Z M 21.984375 1.328125 "/></g></g><g style="fill:#ffed00;fill-opacity:0.4;"><g transform="translate(73.518238, 281.927563)"><path style="stroke:none" d="M 10.890625 0.796875 C 8.109375 0.796875 5.921875 -0.0078125 4.328125 -1.625 C 2.742188 -3.25 1.953125 -5.507812 1.953125 -8.40625 L 1.953125 -27.0625 L 10.046875 -27.0625 L 10.046875 -10.890625 C 10.046875 -9.367188 10.445312 -8.160156 11.25 -7.265625 C 12.0625 -6.367188 13.171875 -5.921875 14.578125 -5.921875 C 16.347656 -5.921875 17.773438 -6.492188 18.859375 -7.640625 C 19.953125 -8.785156 20.5 -10.269531 20.5 -12.09375 L 20.5 -27.0625 L 28.59375 -27.0625 L 28.59375 0 L 21.765625 0 L 20.5625 -4.921875 L 20.5 -4.921875 C 19.519531 -3.085938 18.207031 -1.675781 16.5625 -0.6875 C 14.925781 0.300781 13.035156 0.796875 10.890625 0.796875 Z M 10.890625 0.796875 "/></g></g><g style="fill:#ffed00;fill-opacity:0.4;"><g transform="translate(104.265723, 281.927563)"><path style="stroke:none" d="M 17.390625 1.0625 C 14.210938 1.0625 11.410156 0.4375 8.984375 -0.8125 C 6.554688 -2.0625 4.65625 -3.796875 3.28125 -6.015625 C 1.90625 -8.242188 1.21875 -10.800781 1.21875 -13.6875 C 1.21875 -16.539062 1.820312 -19.050781 3.03125 -21.21875 C 4.25 -23.382812 5.957031 -25.070312 8.15625 -26.28125 C 10.363281 -27.5 12.910156 -28.109375 15.796875 -28.109375 C 18.617188 -28.109375 21.078125 -27.523438 23.171875 -26.359375 C 25.265625 -25.203125 26.898438 -23.59375 28.078125 -21.53125 C 29.265625 -19.46875 29.859375 -17.082031 29.859375 -14.375 C 29.859375 -13.84375 29.820312 -13.300781 29.75 -12.75 C 29.675781 -12.207031 29.585938 -11.726562 29.484375 -11.3125 L 9.515625 -11.3125 C 9.753906 -9.375 10.625 -7.8125 12.125 -6.625 C 13.625 -5.445312 15.484375 -4.859375 17.703125 -4.859375 C 19.390625 -4.859375 20.972656 -5.203125 22.453125 -5.890625 C 23.929688 -6.578125 25.0625 -7.46875 25.84375 -8.5625 L 30.4375 -5.015625 C 29.34375 -3.222656 27.625 -1.757812 25.28125 -0.625 C 22.9375 0.5 20.304688 1.0625 17.390625 1.0625 Z M 9.453125 -15.953125 L 21.671875 -15.953125 C 21.523438 -17.960938 20.921875 -19.53125 19.859375 -20.65625 C 18.804688 -21.789062 17.453125 -22.359375 15.796875 -22.359375 C 14.109375 -22.359375 12.691406 -21.765625 11.546875 -20.578125 C 10.398438 -19.398438 9.703125 -17.859375 9.453125 -15.953125 Z M 9.453125 -15.953125 "/></g></g><g style="fill:#ffed00;fill-opacity:0.4;"><g transform="translate(135.699986, 281.927563)"><path style="stroke:none" d="M 19.8125 -27.84375 C 22.59375 -27.84375 24.773438 -27.03125 26.359375 -25.40625 C 27.953125 -23.789062 28.75 -21.539062 28.75 -18.65625 L 28.75 0 L 20.65625 0 L 20.65625 -16.171875 C 20.65625 -17.722656 20.25 -18.9375 19.4375 -19.8125 C 18.632812 -20.695312 17.53125 -21.140625 16.125 -21.140625 C 14.394531 -21.140625 12.972656 -20.570312 11.859375 -19.4375 C 10.753906 -18.3125 10.203125 -16.816406 10.203125 -14.953125 L 10.203125 0 L 2.109375 0 L 2.109375 -27.0625 L 8.9375 -27.0625 L 10.140625 -22.140625 L 10.203125 -22.140625 C 11.179688 -23.972656 12.488281 -25.378906 14.125 -26.359375 C 15.769531 -27.347656 17.664062 -27.84375 19.8125 -27.84375 Z M 19.8125 -27.84375 "/></g></g><g style="fill:#ffed00;fill-opacity:0.4;"><g transform="translate(166.394629, 281.927563)"><path style="stroke:none" d="M 15.859375 1.0625 C 12.609375 1.0625 10.039062 0.164062 8.15625 -1.625 C 6.28125 -3.425781 5.34375 -5.863281 5.34375 -8.9375 L 5.34375 -20.921875 L 0.265625 -20.921875 L 0.265625 -27.0625 L 5.34375 -27.0625 L 5.34375 -34.5 L 13.421875 -36.25 L 13.421875 -27.0625 L 24.15625 -27.0625 L 24.15625 -20.921875 L 13.421875 -20.921875 L 13.421875 -10.203125 C 13.421875 -8.722656 13.828125 -7.554688 14.640625 -6.703125 C 15.453125 -5.859375 16.457031 -5.4375 17.65625 -5.4375 C 20.050781 -5.4375 21.878906 -6.601562 23.140625 -8.9375 L 25.578125 -3.859375 C 24.628906 -2.335938 23.265625 -1.132812 21.484375 -0.25 C 19.703125 0.625 17.828125 1.0625 15.859375 1.0625 Z M 15.859375 1.0625 "/></g></g><g style="fill:#ffed00;fill-opacity:0.4;"><g transform="translate(192.59867, 281.927563)"><path style="stroke:none" d="M 10.46875 0.796875 C 7.644531 0.796875 5.328125 0.09375 3.515625 -1.3125 C 1.703125 -2.726562 0.796875 -4.597656 0.796875 -6.921875 C 0.796875 -9.242188 1.796875 -11.195312 3.796875 -12.78125 C 5.804688 -14.375 8.835938 -15.378906 12.890625 -15.796875 L 18.125 -16.4375 C 18.757812 -16.507812 19.269531 -16.710938 19.65625 -17.046875 C 20.039062 -17.378906 20.234375 -17.828125 20.234375 -18.390625 C 20.234375 -19.554688 19.773438 -20.488281 18.859375 -21.1875 C 17.941406 -21.894531 16.765625 -22.25 15.328125 -22.25 C 13.703125 -22.25 12.359375 -21.742188 11.296875 -20.734375 C 10.242188 -19.734375 9.648438 -18.566406 9.515625 -17.234375 L 1.640625 -18.4375 C 1.816406 -20.3125 2.476562 -21.976562 3.625 -23.4375 C 4.769531 -24.894531 6.328125 -26.035156 8.296875 -26.859375 C 10.265625 -27.691406 12.535156 -28.109375 15.109375 -28.109375 C 19.085938 -28.109375 22.257812 -27.128906 24.625 -25.171875 C 26.988281 -23.222656 28.171875 -20.554688 28.171875 -17.171875 L 28.171875 -6.71875 C 28.171875 -5.40625 28.628906 -4.75 29.546875 -4.75 C 30.316406 -4.75 31.019531 -5.15625 31.65625 -5.96875 L 33.5625 -1.6875 C 32.75 -0.875 31.695312 -0.257812 30.40625 0.15625 C 29.125 0.582031 27.867188 0.796875 26.640625 0.796875 C 25.015625 0.796875 23.617188 0.359375 22.453125 -0.515625 C 21.296875 -1.398438 20.628906 -2.460938 20.453125 -3.703125 L 20.34375 -4.65625 L 20.296875 -4.65625 C 19.410156 -3.03125 18.117188 -1.710938 16.421875 -0.703125 C 14.734375 0.296875 12.75 0.796875 10.46875 0.796875 Z M 13.53125 -4.75 C 15.425781 -4.75 16.988281 -5.335938 18.21875 -6.515625 C 19.457031 -7.703125 20.078125 -9.210938 20.078125 -11.046875 L 20.078125 -12.15625 L 14.90625 -11.578125 C 12.644531 -11.328125 11.070312 -10.863281 10.1875 -10.1875 C 9.3125 -9.519531 8.875 -8.75 8.875 -7.875 C 8.875 -6.957031 9.3125 -6.207031 10.1875 -5.625 C 11.070312 -5.039062 12.1875 -4.75 13.53125 -4.75 Z M 13.53125 -4.75 "/></g></g><g style="fill:#ffed00;fill-opacity:0.4;"><g transform="translate(226.146172, 281.927563)"><path style="stroke:none" d="M 14.21875 0.953125 C 11.78125 0.953125 9.582031 0.59375 7.625 -0.125 C 5.675781 -0.851562 4.109375 -1.910156 2.921875 -3.296875 C 1.742188 -4.691406 1.085938 -6.394531 0.953125 -8.40625 L 7.984375 -9.1875 C 8.117188 -7.75 8.8125 -6.597656 10.0625 -5.734375 C 11.3125 -4.867188 12.851562 -4.4375 14.6875 -4.4375 C 16.207031 -4.4375 17.492188 -4.734375 18.546875 -5.328125 C 19.609375 -5.929688 20.140625 -6.691406 20.140625 -7.609375 C 20.140625 -8.421875 19.707031 -9.082031 18.84375 -9.59375 C 17.976562 -10.101562 16.59375 -10.515625 14.6875 -10.828125 L 10.671875 -11.46875 C 7.679688 -11.957031 5.515625 -12.800781 4.171875 -14 C 2.835938 -15.195312 2.171875 -16.90625 2.171875 -19.125 C 2.171875 -21.875 3.242188 -24.039062 5.390625 -25.625 C 7.535156 -27.207031 10.335938 -28 13.796875 -28 C 15.941406 -28 17.867188 -27.664062 19.578125 -27 C 21.285156 -26.332031 22.675781 -25.398438 23.75 -24.203125 C 24.820312 -23.003906 25.46875 -21.613281 25.6875 -20.03125 L 18.8125 -19.03125 C 18.707031 -20.1875 18.160156 -21.109375 17.171875 -21.796875 C 16.179688 -22.484375 14.96875 -22.828125 13.53125 -22.828125 C 12.257812 -22.828125 11.203125 -22.535156 10.359375 -21.953125 C 9.515625 -21.367188 9.070312 -20.675781 9.03125 -19.875 C 9.03125 -19.195312 9.390625 -18.628906 10.109375 -18.171875 C 10.835938 -17.710938 12.015625 -17.34375 13.640625 -17.0625 L 17.65625 -16.375 C 21.070312 -15.78125 23.546875 -14.835938 25.078125 -13.546875 C 26.609375 -12.265625 27.375 -10.5 27.375 -8.25 C 27.375 -6.375 26.816406 -4.75 25.703125 -3.375 C 24.597656 -2.007812 23.054688 -0.945312 21.078125 -0.1875 C 19.109375 0.570312 16.820312 0.953125 14.21875 0.953125 Z M 14.21875 0.953125 "/></g></g><g style="fill:#8c52ff;fill-opacity:1;"><g transform="translate(31.148021, 280.342282)"><path style="stroke:none" d="M 21.984375 1.328125 C 17.828125 1.328125 14.222656 0.507812 11.171875 -1.125 C 8.128906 -2.769531 5.769531 -5.097656 4.09375 -8.109375 C 2.414062 -11.117188 1.578125 -14.6875 1.578125 -18.8125 C 1.578125 -22.9375 2.367188 -26.503906 3.953125 -29.515625 C 5.546875 -32.523438 7.796875 -34.847656 10.703125 -36.484375 C 13.609375 -38.128906 17.035156 -38.953125 20.984375 -38.953125 C 24.078125 -38.953125 26.847656 -38.382812 29.296875 -37.25 C 31.742188 -36.125 33.757812 -34.519531 35.34375 -32.4375 C 36.9375 -30.363281 37.941406 -27.898438 38.359375 -25.046875 L 30.125 -22.984375 C 29.664062 -25.523438 28.640625 -27.535156 27.046875 -29.015625 C 25.460938 -30.492188 23.441406 -31.234375 20.984375 -31.234375 C 17.804688 -31.234375 15.285156 -30.113281 13.421875 -27.875 C 11.554688 -25.632812 10.625 -22.613281 10.625 -18.8125 C 10.65625 -15.039062 11.703125 -12.035156 13.765625 -9.796875 C 15.828125 -7.566406 18.601562 -6.453125 22.09375 -6.453125 C 24.976562 -6.453125 27.40625 -7.332031 29.375 -9.09375 C 31.351562 -10.851562 32.570312 -13.210938 33.03125 -16.171875 L 41.484375 -15 C 41.097656 -11.695312 40.039062 -8.816406 38.3125 -6.359375 C 36.582031 -3.910156 34.328125 -2.015625 31.546875 -0.671875 C 28.765625 0.660156 25.578125 1.328125 21.984375 1.328125 Z M 21.984375 1.328125 "/></g></g><g style="fill:#8c52ff;fill-opacity:1;"><g transform="translate(73.518238, 280.342282)"><path style="stroke:none" d="M 10.890625 0.796875 C 8.109375 0.796875 5.921875 -0.0078125 4.328125 -1.625 C 2.742188 -3.25 1.953125 -5.507812 1.953125 -8.40625 L 1.953125 -27.0625 L 10.046875 -27.0625 L 10.046875 -10.890625 C 10.046875 -9.367188 10.445312 -8.160156 11.25 -7.265625 C 12.0625 -6.367188 13.171875 -5.921875 14.578125 -5.921875 C 16.347656 -5.921875 17.773438 -6.492188 18.859375 -7.640625 C 19.953125 -8.785156 20.5 -10.269531 20.5 -12.09375 L 20.5 -27.0625 L 28.59375 -27.0625 L 28.59375 0 L 21.765625 0 L 20.5625 -4.921875 L 20.5 -4.921875 C 19.519531 -3.085938 18.207031 -1.675781 16.5625 -0.6875 C 14.925781 0.300781 13.035156 0.796875 10.890625 0.796875 Z M 10.890625 0.796875 "/></g></g><g style="fill:#8c52ff;fill-opacity:1;"><g transform="translate(104.265723, 280.342282)"><path style="stroke:none" d="M 17.390625 1.0625 C 14.210938 1.0625 11.410156 0.4375 8.984375 -0.8125 C 6.554688 -2.0625 4.65625 -3.796875 3.28125 -6.015625 C 1.90625 -8.242188 1.21875 -10.800781 1.21875 -13.6875 C 1.21875 -16.539062 1.820312 -19.050781 3.03125 -21.21875 C 4.25 -23.382812 5.957031 -25.070312 8.15625 -26.28125 C 10.363281 -27.5 12.910156 -28.109375 15.796875 -28.109375 C 18.617188 -28.109375 21.078125 -27.523438 23.171875 -26.359375 C 25.265625 -25.203125 26.898438 -23.59375 28.078125 -21.53125 C 29.265625 -19.46875 29.859375 -17.082031 29.859375 -14.375 C 29.859375 -13.84375 29.820312 -13.300781 29.75 -12.75 C 29.675781 -12.207031 29.585938 -11.726562 29.484375 -11.3125 L 9.515625 -11.3125 C 9.753906 -9.375 10.625 -7.8125 12.125 -6.625 C 13.625 -5.445312 15.484375 -4.859375 17.703125 -4.859375 C 19.390625 -4.859375 20.972656 -5.203125 22.453125 -5.890625 C 23.929688 -6.578125 25.0625 -7.46875 25.84375 -8.5625 L 30.4375 -5.015625 C 29.34375 -3.222656 27.625 -1.757812 25.28125 -0.625 C 22.9375 0.5 20.304688 1.0625 17.390625 1.0625 Z M 9.453125 -15.953125 L 21.671875 -15.953125 C 21.523438 -17.960938 20.921875 -19.53125 19.859375 -20.65625 C 18.804688 -21.789062 17.453125 -22.359375 15.796875 -22.359375 C 14.109375 -22.359375 12.691406 -21.765625 11.546875 -20.578125 C 10.398438 -19.398438 9.703125 -17.859375 9.453125 -15.953125 Z M 9.453125 -15.953125 "/></g></g><g style="fill:#8c52ff;fill-opacity:1;"><g transform="translate(135.699986, 280.342282)"><path style="stroke:none" d="M 19.8125 -27.84375 C 22.59375 -27.84375 24.773438 -27.03125 26.359375 -25.40625 C 27.953125 -23.789062 28.75 -21.539062 28.75 -18.65625 L 28.75 0 L 20.65625 0 L 20.65625 -16.171875 C 20.65625 -17.722656 20.25 -18.9375 19.4375 -19.8125 C 18.632812 -20.695312 17.53125 -21.140625 16.125 -21.140625 C 14.394531 -21.140625 12.972656 -20.570312 11.859375 -19.4375 C 10.753906 -18.3125 10.203125 -16.816406 10.203125 -14.953125 L 10.203125 0 L 2.109375 0 L 2.109375 -27.0625 L 8.9375 -27.0625 L 10.140625 -22.140625 L 10.203125 -22.140625 C 11.179688 -23.972656 12.488281 -25.378906 14.125 -26.359375 C 15.769531 -27.347656 17.664062 -27.84375 19.8125 -27.84375 Z M 19.8125 -27.84375 "/></g></g><g style="fill:#8c52ff;fill-opacity:1;"><g transform="translate(166.394629, 280.342282)"><path style="stroke:none" d="M 15.859375 1.0625 C 12.609375 1.0625 10.039062 0.164062 8.15625 -1.625 C 6.28125 -3.425781 5.34375 -5.863281 5.34375 -8.9375 L 5.34375 -20.921875 L 0.265625 -20.921875 L 0.265625 -27.0625 L 5.34375 -27.0625 L 5.34375 -34.5 L 13.421875 -36.25 L 13.421875 -27.0625 L 24.15625 -27.0625 L 24.15625 -20.921875 L 13.421875 -20.921875 L 13.421875 -10.203125 C 13.421875 -8.722656 13.828125 -7.554688 14.640625 -6.703125 C 15.453125 -5.859375 16.457031 -5.4375 17.65625 -5.4375 C 20.050781 -5.4375 21.878906 -6.601562 23.140625 -8.9375 L 25.578125 -3.859375 C 24.628906 -2.335938 23.265625 -1.132812 21.484375 -0.25 C 19.703125 0.625 17.828125 1.0625 15.859375 1.0625 Z M 15.859375 1.0625 "/></g></g><g style="fill:#8c52ff;fill-opacity:1;"><g transform="translate(192.59867, 280.342282)"><path style="stroke:none" d="M 10.46875 0.796875 C 7.644531 0.796875 5.328125 0.09375 3.515625 -1.3125 C 1.703125 -2.726562 0.796875 -4.597656 0.796875 -6.921875 C 0.796875 -9.242188 1.796875 -11.195312 3.796875 -12.78125 C 5.804688 -14.375 8.835938 -15.378906 12.890625 -15.796875 L 18.125 -16.4375 C 18.757812 -16.507812 19.269531 -16.710938 19.65625 -17.046875 C 20.039062 -17.378906 20.234375 -17.828125 20.234375 -18.390625 C 20.234375 -19.554688 19.773438 -20.488281 18.859375 -21.1875 C 17.941406 -21.894531 16.765625 -22.25 15.328125 -22.25 C 13.703125 -22.25 12.359375 -21.742188 11.296875 -20.734375 C 10.242188 -19.734375 9.648438 -18.566406 9.515625 -17.234375 L 1.640625 -18.4375 C 1.816406 -20.3125 2.476562 -21.976562 3.625 -23.4375 C 4.769531 -24.894531 6.328125 -26.035156 8.296875 -26.859375 C 10.265625 -27.691406 12.535156 -28.109375 15.109375 -28.109375 C 19.085938 -28.109375 22.257812 -27.128906 24.625 -25.171875 C 26.988281 -23.222656 28.171875 -20.554688 28.171875 -17.171875 L 28.171875 -6.71875 C 28.171875 -5.40625 28.628906 -4.75 29.546875 -4.75 C 30.316406 -4.75 31.019531 -5.15625 31.65625 -5.96875 L 33.5625 -1.6875 C 32.75 -0.875 31.695312 -0.257812 30.40625 0.15625 C 29.125 0.582031 27.867188 0.796875 26.640625 0.796875 C 25.015625 0.796875 23.617188 0.359375 22.453125 -0.515625 C 21.296875 -1.398438 20.628906 -2.460938 20.453125 -3.703125 L 20.34375 -4.65625 L 20.296875 -4.65625 C 19.410156 -3.03125 18.117188 -1.710938 16.421875 -0.703125 C 14.734375 0.296875 12.75 0.796875 10.46875 0.796875 Z M 13.53125 -4.75 C 15.425781 -4.75 16.988281 -5.335938 18.21875 -6.515625 C 19.457031 -7.703125 20.078125 -9.210938 20.078125 -11.046875 L 20.078125 -12.15625 L 14.90625 -11.578125 C 12.644531 -11.328125 11.070312 -10.863281 10.1875 -10.1875 C 9.3125 -9.519531 8.875 -8.75 8.875 -7.875 C 8.875 -6.957031 9.3125 -6.207031 10.1875 -5.625 C 11.070312 -5.039062 12.1875 -4.75 13.53125 -4.75 Z M 13.53125 -4.75 "/></g></g><g style="fill:#8c52ff;fill-opacity:1;"><g transform="translate(226.146172, 280.342282)"><path style="stroke:none" d="M 14.21875 0.953125 C 11.78125 0.953125 9.582031 0.59375 7.625 -0.125 C 5.675781 -0.851562 4.109375 -1.910156 2.921875 -3.296875 C 1.742188 -4.691406 1.085938 -6.394531 0.953125 -8.40625 L 7.984375 -9.1875 C 8.117188 -7.75 8.8125 -6.597656 10.0625 -5.734375 C 11.3125 -4.867188 12.851562 -4.4375 14.6875 -4.4375 C 16.207031 -4.4375 17.492188 -4.734375 18.546875 -5.328125 C 19.609375 -5.929688 20.140625 -6.691406 20.140625 -7.609375 C 20.140625 -8.421875 19.707031 -9.082031 18.84375 -9.59375 C 17.976562 -10.101562 16.59375 -10.515625 14.6875 -10.828125 L 10.671875 -11.46875 C 7.679688 -11.957031 5.515625 -12.800781 4.171875 -14 C 2.835938 -15.195312 2.171875 -16.90625 2.171875 -19.125 C 2.171875 -21.875 3.242188 -24.039062 5.390625 -25.625 C 7.535156 -27.207031 10.335938 -28 13.796875 -28 C 15.941406 -28 17.867188 -27.664062 19.578125 -27 C 21.285156 -26.332031 22.675781 -25.398438 23.75 -24.203125 C 24.820312 -23.003906 25.46875 -21.613281 25.6875 -20.03125 L 18.8125 -19.03125 C 18.707031 -20.1875 18.160156 -21.109375 17.171875 -21.796875 C 16.179688 -22.484375 14.96875 -22.828125 13.53125 -22.828125 C 12.257812 -22.828125 11.203125 -22.535156 10.359375 -21.953125 C 9.515625 -21.367188 9.070312 -20.675781 9.03125 -19.875 C 9.03125 -19.195312 9.390625 -18.628906 10.109375 -18.171875 C 10.835938 -17.710938 12.015625 -17.34375 13.640625 -17.0625 L 17.65625 -16.375 C 21.070312 -15.78125 23.546875 -14.835938 25.078125 -13.546875 C 26.609375 -12.265625 27.375 -10.5 27.375 -8.25 C 27.375 -6.375 26.816406 -4.75 25.703125 -3.375 C 24.597656 -2.007812 23.054688 -0.945312 21.078125 -0.1875 C 19.109375 0.570312 16.820312 0.953125 14.21875 0.953125 Z M 14.21875 0.953125 "/></g></g></g></svg>